<svg width="17" height="16" viewBox="0 0 17 16" fill="none" xmlns="http://www.w3.org/2000/svg">
<path d="M9.86427 2.25H9.89547C10.1133 2.25 10.3222 2.33654 10.4762 2.49059C10.6302 2.64464 10.7167 2.85357 10.7167 3.07143C10.7167 3.28929 10.6302 3.49822 10.4762 3.65227C10.3222 3.80631 10.1133 3.89286 9.89547 3.89286C8.83194 3.89286 8.0345 3.89286 7.4013 3.94379C6.76647 3.99471 6.39115 4.09082 6.1382 4.22554C5.57637 4.53091 5.12516 5.00578 4.84882 5.58254C4.70839 5.87332 4.61887 6.24461 4.57124 6.85411C4.52853 7.39461 4.5236 8.06654 4.52196 8.97339L5.09109 8.40496C5.24509 8.25083 5.45399 8.1642 5.67185 8.16412C5.8897 8.16404 6.09867 8.25053 6.25277 8.40455C6.40687 8.55858 6.49349 8.76752 6.49357 8.98542C6.49364 9.20332 6.40717 9.41233 6.25318 9.56646L4.28215 11.5379C4.20344 11.6168 4.1095 11.6789 4.00605 11.7203C3.90259 11.7617 3.79179 11.7817 3.68039 11.7789C3.56898 11.7761 3.45931 11.7507 3.35804 11.7042C3.25677 11.6577 3.16602 11.591 3.09132 11.5083L1.30919 9.53689C1.23682 9.45691 1.18091 9.36345 1.14466 9.26185C1.1084 9.16025 1.09251 9.05251 1.09788 8.94477C1.10326 8.83703 1.1298 8.7314 1.17599 8.63392C1.22218 8.53643 1.28711 8.44901 1.36708 8.37663C1.44705 8.30424 1.5405 8.24832 1.64207 8.21206C1.74365 8.1758 1.85137 8.1599 1.95909 8.16528C2.06681 8.17066 2.17242 8.19721 2.26988 8.2434C2.36734 8.2896 2.45475 8.35455 2.52712 8.43454L2.88026 8.82554C2.88108 7.98932 2.88847 7.30096 2.93364 6.72679C2.98866 6.02118 3.10282 5.41907 3.37137 4.86543C3.79894 3.97661 4.49622 3.24555 5.36375 2.77654C5.914 2.48164 6.55951 2.36336 7.27072 2.30668C7.97701 2.25 8.84015 2.25 9.86427 2.25ZM13.2947 4.22143C13.4059 4.2244 13.5154 4.24996 13.6165 4.29656C13.7176 4.34316 13.8082 4.40982 13.8827 4.4925L15.6657 6.46393C15.7437 6.54282 15.8049 6.63671 15.8457 6.73993C15.8865 6.84315 15.9059 6.95356 15.9028 7.0645C15.8997 7.17543 15.8742 7.2846 15.8278 7.38539C15.7813 7.48619 15.715 7.57653 15.6327 7.65096C15.5504 7.72539 15.4538 7.78237 15.3489 7.81845C15.244 7.85454 15.1328 7.86899 15.0222 7.86092C14.9115 7.85285 14.8036 7.82244 14.705 7.77152C14.6064 7.7206 14.5192 7.65022 14.4485 7.56464L14.0954 7.17446C14.0938 8.01068 14.0864 8.69904 14.0412 9.27321C13.9862 9.97882 13.872 10.5809 13.6035 11.1346C13.1759 12.0234 12.4786 12.7545 11.6111 13.2235C11.0608 13.5175 10.4153 13.6366 9.70412 13.6933C8.99784 13.75 8.13551 13.75 7.1114 13.75H7.07855C6.86074 13.75 6.65184 13.6635 6.49783 13.5094C6.34381 13.3554 6.25729 13.1464 6.25729 12.9286C6.25729 12.7107 6.34381 12.5018 6.49783 12.3477C6.65184 12.1937 6.86074 12.1071 7.07855 12.1071C8.1429 12.1071 8.94035 12.1071 9.57354 12.0562C10.2084 12.0053 10.5837 11.9092 10.8366 11.7745C11.3985 11.4691 11.8497 10.9942 12.126 10.4175C12.2665 10.1267 12.356 9.75539 12.4036 9.14589C12.4463 8.60539 12.4521 7.93346 12.4529 7.02661L11.8837 7.59504C11.7289 7.74467 11.5214 7.82746 11.3061 7.82559C11.0907 7.82372 10.8848 7.73733 10.7325 7.58503C10.5802 7.43273 10.4938 7.22671 10.492 7.01133C10.4901 6.79595 10.5729 6.58846 10.7225 6.43354L12.6935 4.46211C12.7722 4.38333 12.866 4.32138 12.9694 4.28001C13.0727 4.23863 13.1834 4.2187 13.2947 4.22143Z" />
</svg>
