<svg xmlns="http://www.w3.org/2000/svg" xmlns:xlink="http://www.w3.org/1999/xlink" width="92" height="101.00390625" viewBox="0 0 92 101.00390625" fill="none">
<g filter="url(#filter_JPKGtzGobERidTZDKLukt)">
<path d="M74 53.1567L70.8268 53.1567L61.4932 62.4564L70.4068 62.4564L78.6668 71.7556L13.3333 71.7556L21.64 62.4564L31.2067 62.4564L21.8733 53.1567L18 53.1567L4 67.1058L4 85.7047C4 88.1709 4.98331 90.5362 6.73367 92.2801C8.48402 94.0245 10.858 95.0039 13.3333 95.0039L78.6668 95.0039C81.142 95.0039 83.5159 94.0245 85.2662 92.2801C87.0164 90.5362 88 88.1709 88 85.7047L88 67.1058L74 53.1567ZM69.3332 29.676L46.2332 52.6918L29.6667 36.2321L52.8132 13.2161L69.3332 29.676ZM49.5468 3.3588L19.82 32.9773C19.3874 33.4075 19.0441 33.9184 18.81 34.4809C18.5758 35.0434 18.4553 35.6464 18.4553 36.2553C18.4553 36.8643 18.5758 37.4673 18.81 38.0298C19.0441 38.5923 19.3874 39.1032 19.82 39.5334L42.92 62.4564C44.74 64.3626 47.68 64.3626 49.5 62.4564L79.18 32.9773C79.6127 32.5472 79.9559 32.0362 80.19 31.4737C80.4242 30.9112 80.5449 30.3083 80.5449 29.6993C80.5449 29.0903 80.4242 28.4873 80.19 27.9248C79.9559 27.3624 79.6127 26.8514 79.18 26.4212L56.08 3.40526C55.659 2.96635 55.154 2.61615 54.5945 2.37552C54.035 2.13483 53.4327 2.00858 52.8233 2.00427C52.214 1.9999 51.6097 2.11758 51.0471 2.35026C50.4841 2.58293 49.974 2.92592 49.5468 3.3588Z"   fill="#FFFFFF" >
</path>
</g>
<defs>
<filter id="filter_JPKGtzGobERidTZDKLukt" x="0" y="0" width="92" height="101.00390625" filterUnits="userSpaceOnUse" color-interpolation-filters="sRGB">
<feFlood flood-opacity="0" result="feFloodId_JPKGtzGobERidTZDKLukt"/>
<feColorMatrix in="SourceAlpha" type="matrix" values="0 0 0 0 0 0 0 0 0 0 0 0 0 0 0 0 0 0 127 0" result="hardAlpha_JPKGtzGobERidTZDKLukt"/>
<feOffset dx="0" dy="2"/>
<feGaussianBlur stdDeviation="2"/>
<feComposite in2="hardAlpha_JPKGtzGobERidTZDKLukt" operator="out"/>
<feColorMatrix type="matrix" values="0 0 0 0 0 0 0 0 0 0 0 0 0 0 0 0 0 0 0.25 0"/>
<feBlend mode="normal" in2="feFloodId_JPKGtzGobERidTZDKLukt" result="dropShadow_1_JPKGtzGobERidTZDKLukt"/>
<feBlend mode="normal" in="SourceGraphic" in2="dropShadow_1_JPKGtzGobERidTZDKLukt" result="shape_JPKGtzGobERidTZDKLukt"/>
</filter>
</defs>
</svg>
